<svg width="65" height="65" viewBox="0 0 65 65" fill="none" xmlns="http://www.w3.org/2000/svg">
<path d="M49.2286 36.9062C52.7741 35.9204 55.2257 33.979 54.9835 30.5113C54.9355 29.4822 54.5507 28.4973 53.8882 27.7083C53.2257 26.9192 52.3223 26.3697 51.317 26.1443C50.1496 25.8676 48.139 26.0665 47.4645 26.7281C48.4892 26.7281 50.1798 27.5539 50.4566 28.9894C50.7333 30.4249 49.4664 31.9036 46.8462 31.5447C46.8462 31.4064 46.8462 31.2637 46.8159 31.1123C46.5822 28.5796 46.5446 26.0325 46.7035 23.4939L46.7684 22.6291L45.9296 22.681C45.5621 22.7026 45.1988 22.7156 44.8529 22.7156C44.2662 22.7147 43.68 22.6786 43.0975 22.6075C43.4186 21.6942 43.5251 20.7192 43.4088 19.7582C43.2186 17.6395 41.3421 15.9532 39.8158 15.3609C39.2141 15.1668 38.6771 14.8114 38.2631 14.3334C37.8492 13.8555 37.5742 13.2732 37.468 12.6499C37.0223 13.2967 36.7703 14.0571 36.7416 14.842C36.7856 15.4671 36.9589 16.0762 37.2507 16.6307C37.5425 17.1852 37.9463 17.673 38.4365 18.0632C39.1499 18.6167 38.7867 19.7019 37.7404 20.7007C36.0188 19.6288 34.431 18.3559 33.0102 16.9088L32.4957 16.4029L31.9855 16.9088C30.5659 18.3559 28.9778 19.6276 27.2553 20.6964C26.2133 19.702 25.8501 18.6167 26.5592 18.0632C27.0508 17.674 27.4558 17.1865 27.7484 16.6318C28.041 16.0772 28.2147 15.4676 28.2584 14.842C28.2291 14.0566 27.9756 13.2959 27.5277 12.6499C27.4219 13.2727 27.1475 13.8546 26.7344 14.3325C26.3213 14.8104 25.7851 15.1661 25.1842 15.3609C23.6579 15.9532 21.7814 17.6395 21.5868 19.7582C21.4737 20.7182 21.5817 21.6913 21.9025 22.6032C21.316 22.6779 20.7253 22.7155 20.1341 22.7156C19.7925 22.7156 19.4336 22.7156 19.0661 22.681L18.2273 22.6291L18.2921 23.4939C18.4521 26.0354 18.413 28.5855 18.1754 31.121L18.1495 31.5534C15.5552 31.9122 14.2581 30.373 14.5434 28.998C14.8288 27.6231 16.5108 26.7194 17.5355 26.7367C16.861 26.0752 14.8504 25.872 13.683 26.153C12.6777 26.3784 11.7743 26.9279 11.1118 27.7169C10.4493 28.506 10.0645 29.4908 10.0165 30.52C9.77434 33.979 12.2259 35.929 15.7714 36.9148C16.6029 37.132 17.4109 37.4303 18.1841 37.8055C18.2595 38.3282 18.3634 38.8464 18.4953 39.3577C17.3968 39.59 16.3722 40.0889 15.5119 40.8105C14.9236 41.2401 14.4556 41.8136 14.1528 42.4761C13.8499 43.1386 13.7224 43.8678 13.7824 44.5938C13.7854 45.2482 14.025 45.8793 14.457 46.3709C14.7769 45.0997 15.2828 44.3041 16.4372 43.8588C17.9462 43.2707 19.6887 45.1559 20.8129 47.2918C22.3694 50.2493 25.4523 51.0449 28.5438 49.6223L28.7081 49.5445C29.9087 50.1221 31.0175 50.8739 31.9984 51.7756L32.5043 52.2685L33.0145 51.7756C33.9964 50.874 35.105 50.1209 36.3049 49.5402L36.4735 49.6223C39.5607 51.0449 42.6478 50.2493 44.2044 47.2918C45.3286 45.1645 47.071 43.2707 48.58 43.8588C49.7345 44.2911 50.2361 45.0997 50.5603 46.3709C50.9923 45.8793 51.2318 45.2482 51.2348 44.5938C51.2949 43.8678 51.1674 43.1386 50.8646 42.4761C50.5617 41.8136 50.0936 41.2401 49.5053 40.8105C48.644 40.0879 47.6179 39.5889 46.5176 39.3577C46.6517 38.8346 46.7511 38.32 46.8289 37.8098C47.5974 37.4311 48.4011 37.1284 49.2286 36.9062V36.9062Z" fill="black"/>
<path d="M20.8821 25.2278C20.9808 27.3444 20.9317 29.4654 20.7351 31.5751C20.4973 34.8439 20.3027 37.4252 21.6863 40.4475C23.1348 43.6427 25.7722 44.9226 28.3233 46.1591C29.8152 46.8058 31.2187 47.6398 32.5 48.641C33.7798 47.6399 35.1819 46.8059 36.6724 46.1591C39.2278 44.9226 41.8609 43.6427 43.3137 40.4475C44.6887 37.4208 44.4984 34.8266 44.2606 31.5751C44.0678 29.4651 44.0201 27.3444 44.1179 25.2278H43.7115C39.6515 25.2278 36.2747 23.7102 32.5 20.1604C28.7254 23.7059 25.3485 25.2278 21.2885 25.2278H20.8821Z" fill="white"/>
<path d="M32.5606 39.5134C32.5606 39.5134 31.3413 41.5326 30.6019 42.713C30.1176 42.713 28.159 42.7779 24.7259 42.713C25.7809 40.8581 27.6531 37.6369 29.5296 34.4979C27.8001 31.6139 26.1571 28.7732 25.0848 26.9183C28.6 26.8362 30.5587 26.9183 31.0646 26.9183C31.5704 27.7831 32.5606 29.4045 32.5606 29.4045C32.5606 29.4045 33.4685 27.8263 34.0133 26.9183C34.5192 26.9183 36.4779 26.8362 40.0147 26.9183C38.9208 28.7732 37.2778 31.6139 35.5742 34.4979C37.4248 37.6369 39.2797 40.8581 40.352 42.713C36.9622 42.7779 34.9602 42.713 34.476 42.713C33.7409 41.5543 32.5606 39.5134 32.5606 39.5134Z" fill="black"/>
</svg>
